<svg xmlns="http://www.w3.org/2000/svg" viewBox="0 0 480.92 97.1" width="480.92" height="97.1"><defs><style>.cls-1{fill:#3b60fe;}.cls-2{fill:#3c61fe;}</style></defs><title>Asset 1</title><g id="Layer_2" data-name="Layer 2"><g id="Layer_1-2" data-name="Layer 1"><g id="tnWase.tif"><path class="cls-1" d="M480.92,75.21c-2.65,0-5.3,0-8,0-.48,0-.54-.19-.53-.59,0-2,0-3.92,0-5.87q0-23.64,0-47.28c0-.74.19-.9.9-.89,2.53,0,5.06,0,7.59,0Z"/><path class="cls-1" d="M.06,97c0-.29.3-.42.47-.59L36.44,60.28Q42,54.66,47.61,49c.41-.41.37-.61,0-1Q32,32.38,16.42,16.69L.47.62,0,.13A1.36,1.36,0,0,1,.85,0H84c7.07,0,14.14,0,21.21,0,.69,0,.86.19.86.87q0,47.69,0,95.39c0,.63-.13.85-.81.85Q53,97.08.69,97.09A1,1,0,0,1,.06,97Zm22.42-9.64h.71q36.16,0,72.32,0c.62,0,.84-.11.84-.8q0-38.06,0-76.11c0-.58-.12-.76-.74-.76l-71.46,0c-.19,0-.42-.12-.64.2.21.18.44.35.64.55q18.64,18.61,37.29,37.2c.47.47.53.71,0,1.21Q42.2,67.8,23,86.73C22.79,86.9,22.55,87,22.47,87.38Z"/><path class="cls-2" d="M132.76,20.62h3.4c1.86,0,3.73,0,5.59,0a.79.79,0,0,1,.9.64q4,11.8,8.13,23.59Q154,54.2,157.3,63.55c0,.13.1.26.18.47.57-1.7,1.1-3.33,1.67-4.94q6.7-18.94,13.41-37.89c.12-.33.2-.59.65-.58,3,0,6,0,9,0a1.72,1.72,0,0,1,.27.05c-.48,1.33-1,2.65-1.43,4q-9.09,24.85-18.16,49.7a1.14,1.14,0,0,1-1.31.91c-2.91,0-5.83,0-8.74,0a.79.79,0,0,1-.9-.65q-9.47-26.69-19-53.37C132.87,21.06,132.83,20.88,132.76,20.62Z"/><path class="cls-2" d="M353.09,55.59A30,30,0,0,1,354.89,45c2.44-6.08,7-9.5,13.38-10.52a31.48,31.48,0,0,1,11.11.12c6.13,1.21,10.26,4.76,12,10.74a31,31,0,0,1-.5,19.5c-2.1,5.94-6.45,9.46-12.57,10.71a26.59,26.59,0,0,1-11.79.06c-7-1.72-11.17-6.23-12.76-13.2A32.47,32.47,0,0,1,353.09,55.59Zm30.19-.48a24.58,24.58,0,0,0-.85-8.2,7.57,7.57,0,0,0-6.18-5.76,14.75,14.75,0,0,0-6.19.1,9,9,0,0,0-6,4.58,17,17,0,0,0-1.79,7.51,31.17,31.17,0,0,0,.25,5.83,17.41,17.41,0,0,0,1.6,5.81,7.59,7.59,0,0,0,5.24,4.12,16.5,16.5,0,0,0,5.33.24,8.65,8.65,0,0,0,7.79-6.52A23.76,23.76,0,0,0,383.28,55.11Z"/><path class="cls-2" d="M454.24,70.39c-.71.72-1.25,1.35-1.87,1.89a15.18,15.18,0,0,1-15.09,3.28c-4.67-1.44-7.14-5-8-9.68a13.7,13.7,0,0,1,.07-5c.8-4.1,3.54-6.28,7.39-7.29a79.26,79.26,0,0,1,12.66-2.29c1.43-.14,2.86-.2,4.29-.3.22,0,.51.08.52-.31a11.77,11.77,0,0,0-1-6.06,5.47,5.47,0,0,0-4.45-2.84,24.43,24.43,0,0,0-7.61.51,78.62,78.62,0,0,0-9.35,2.4c-.52.16-.64.09-.63-.46,0-2,0-4.06,0-6.09a.63.63,0,0,1,.5-.72,58.87,58.87,0,0,1,13.86-3.11,29.89,29.89,0,0,1,8.91.29,9.44,9.44,0,0,1,7.86,8.66,64.27,64.27,0,0,1,.31,6.51c0,8.22.07,16.44.14,24.65,0,.66-.17.83-.82.82-2.29,0-4.59,0-6.88,0-.69,0-.82-.22-.8-.84C454.27,73.14,454.24,71.86,454.24,70.39Zm0-9c0-1.22,0-2.43,0-3.65,0-.56-.14-.73-.71-.71a61.57,61.57,0,0,0-11.15,1.17A5.77,5.77,0,0,0,437.52,65a5.18,5.18,0,0,0,3.11,4,9.42,9.42,0,0,0,5.57.57,14.23,14.23,0,0,0,7.71-3.77,1,1,0,0,0,.33-.81C454.23,63.82,454.24,62.6,454.24,61.39Z"/><path class="cls-2" d="M264.73,71.52c-1.34.79-2.59,1.57-3.88,2.28a20.11,20.11,0,0,1-14.8,2.1,12,12,0,0,1-5.4-2.82,7,7,0,0,1-2.39-5.39q0-15.91,0-31.81c0-.55.15-.68.68-.67,2.39,0,4.78,0,7.17,0,.59,0,.7.18.7.73q0,14.19,0,28.38c0,2.74,1,4,3.75,4.6a13.79,13.79,0,0,0,9-1.36,43.59,43.59,0,0,0,5.08-2.94c.42-.26.39-.6.39-1q0-13.72,0-27.44c0-1.12-.13-1,.94-1,2.32,0,4.63,0,7,0,.49,0,.64.12.64.63q0,19.38,0,38.77c0,.5-.14.65-.64.64q-3.76,0-7.52,0c-.47,0-.62-.13-.6-.6C264.75,73.63,264.73,72.61,264.73,71.52Z"/><path class="cls-2" d="M343.84,52.23q0,11.11,0,22.21c0,.61-.11.82-.77.81q-4.12-.06-8.24,0c-.62,0-.73-.19-.73-.76q0-22.21,0-44.43c0-.92,0-.92-.91-.92-4.28,0-8.55,0-12.83,0-.71,0-.87-.21-.86-.88,0-2.34,0-4.68,0-7,0-.5.14-.64.64-.64q18.77,0,37.55,0c.53,0,.63.18.62.66,0,2.39,0,4.78,0,7.17,0,.57-.15.73-.72.72-4.32,0-8.65,0-13,0-.64,0-.84.15-.84.82C343.85,37.38,343.84,44.81,343.84,52.23Z"/><path class="cls-2" d="M282,66.77a45.18,45.18,0,0,0,4.44,1.63,32,32,0,0,0,10.1,1.37,7.59,7.59,0,0,0,4.57-1.44A4.76,4.76,0,0,0,303,63.69a3.78,3.78,0,0,0-2.31-2.89,34.2,34.2,0,0,0-5.93-2.07,45.62,45.62,0,0,1-7.2-2.56c-3.5-1.78-5.1-4.69-5.33-8.52A11.46,11.46,0,0,1,285,38.9a14.6,14.6,0,0,1,8.09-4.25c4.84-1.08,9.53-.36,14.17,1.06.71.22,1.42.41,2.14.58a.5.5,0,0,1,.46.58q0,3.15,0,6.31c0,.45-.1.51-.53.37a48.38,48.38,0,0,0-7.66-2.05c-2.58-.41-5.16-.73-7.71.18a4.64,4.64,0,0,0-3.1,5.57,3.31,3.31,0,0,0,1.95,2.24A38.57,38.57,0,0,0,299,51.56a62,62,0,0,1,6.73,2.17,9.84,9.84,0,0,1,6.38,9.4c.23,5.89-3.37,10.15-8.45,11.82a27.15,27.15,0,0,1-10.24,1.19,49.1,49.1,0,0,1-10.82-1.91c-.46-.13-.64-.3-.63-.81C282,71.23,282,69.06,282,66.77Z"/><path class="cls-2" d="M403.26,54.18c0-3.66,0-7.31,0-11,0-.56-.15-.72-.71-.71-2,0-3.92,0-5.88,0-.5,0-.72-.08-.71-.66,0-2,0-4.06,0-6.09,0-.44.12-.57.57-.56,2,0,4.06,0,6.09,0,.5,0,.64-.13.64-.64,0-2.79,0-5.59,0-8.39,0-.54.11-.74.7-.73,2.39,0,4.78,0,7.17,0,.54,0,.68.15.68.68,0,2.77,0,5.54,0,8.31,0,.58.13.76.74.76,3.56,0,7.12,0,10.68,0,.56,0,.72.13.71.7,0,2,0,3.92,0,5.88,0,.62-.19.74-.77.73-3.56,0-7.12,0-10.68,0-.44,0-.69,0-.68.6,0,7,0,14,.07,21.07a11.07,11.07,0,0,0,.19,1.92A3.46,3.46,0,0,0,415.2,69a11.26,11.26,0,0,0,5.38-.28c.87-.3,1.8-.44,2.71-.66.39-.1.6-.06.6.45,0,2.05,0,4.11,0,6.16,0,.22.08.47-.3.53-3.56.55-7.12,1.21-10.74.87-5.14-.49-8.35-3.59-9.17-8.69a44.6,44.6,0,0,1-.4-7.29C403.26,58.14,403.26,56.16,403.26,54.18Z"/><path class="cls-1" d="M216.66,40A32.42,32.42,0,0,1,219,37.53a13.7,13.7,0,0,1,9.16-3.5c1.17,0,2.34,0,3.51,0,.37,0,.56.06.56.5q0,3.76,0,7.52c0,.49-.22.43-.57.42a27.16,27.16,0,0,0-9.52.67,17.72,17.72,0,0,0-5.39,2.76c-.34.25-.31.56-.31.88q0,9,0,18.06c0,3.25,0,6.5,0,9.75,0,.52-.11.69-.66.68-2.41,0-4.82,0-7.24,0-.47,0-.6-.13-.6-.6q0-19.42,0-38.84c0-.47.14-.6.6-.6q3.65,0,7.31,0c.48,0,.6.14.59.6,0,1.35,0,2.7,0,4Z"/><path class="cls-2" d="M188.52,55.23c0-6.42,0-12.85,0-19.27,0-.59.15-.76.75-.75,2.39,0,4.78,0,7.16,0,.5,0,.64.14.64.64q0,19.38,0,38.75c0,.49-.13.65-.64.65-2.39,0-4.78,0-7.16,0-.6,0-.75-.17-.75-.76C188.53,68.07,188.52,61.65,188.52,55.23Z"/><path class="cls-2" d="M192.79,28.92c-1.24,0-2.48,0-3.72,0-.4,0-.53-.12-.53-.53q0-3.61,0-7.23c0-.44.14-.57.57-.56q3.68,0,7.37,0c.43,0,.58.12.57.56q0,3.68,0,7.37c0,.48-.15.6-.62.59-1.21,0-2.43,0-3.65,0Z"/></g></g></g></svg>
